<svg xmlns="http://www.w3.org/2000/svg" xmlns:xlink="http://www.w3.org/1999/xlink" contentStyleType="text/css" data-diagram-type="ACTIVITY" height="1595px" preserveAspectRatio="none" style="width:826px;height:1595px;background:#FFFFFF;" version="1.1" viewBox="0 0 826 1595" width="826px" zoomAndPan="magnify"><title>Diagrama de decisi&#243;n - Reconocimiento de cartas</title><defs/><g><g class="title" data-source-line="1"><text fill="#000000" font-family="sans-serif" font-size="14" font-weight="bold" lengthAdjust="spacing" textLength="390.8516" x="216.3274" y="32.9951">Diagrama de decisi&#243;n - Reconocimiento de cartas</text></g><ellipse cx="509.4454" cy="57.2969" fill="#222222" rx="10" ry="10" style="stroke:#222222;stroke-width:1;"/><rect fill="#F1F1F1" height="33.9688" rx="12.5" ry="12.5" style="stroke:#181818;stroke-width:0.5;" width="180.1895" x="419.3506" y="87.2969"/><text fill="#000000" font-family="sans-serif" font-size="12" lengthAdjust="spacing" textLength="160.1895" x="429.3506" y="108.4355">Capturar frame de c&#225;mara</text><rect fill="#F1F1F1" height="47.9375" rx="12.5" ry="12.5" style="stroke:#181818;stroke-width:0.5;" width="170.5332" x="424.1788" y="141.2656"/><text fill="#000000" font-family="sans-serif" font-size="12" lengthAdjust="spacing" textLength="148.0898" x="434.1788" y="162.4043">'Recortar bordes negros'</text><text fill="#000000" font-family="sans-serif" font-size="12" lengthAdjust="spacing" textLength="150.5332" x="434.1788" y="176.373">(20% arriba / 20% abajo)</text><rect fill="#F1F1F1" height="33.9688" rx="12.5" ry="12.5" style="stroke:#181818;stroke-width:0.5;" width="115.5488" x="451.671" y="209.2031"/><text fill="#000000" font-family="sans-serif" font-size="12" lengthAdjust="spacing" textLength="95.5488" x="461.671" y="230.3418">Convertir a HSV</text><rect fill="#F1F1F1" height="47.9375" rx="12.5" ry="12.5" style="stroke:#181818;stroke-width:0.5;" width="201.4766" x="408.7071" y="263.1719"/><text fill="#000000" font-family="sans-serif" font-size="12" lengthAdjust="spacing" textLength="147.4805" x="418.7071" y="284.3105">Segmentar tapete verde</text><text fill="#000000" font-family="sans-serif" font-size="12" lengthAdjust="spacing" textLength="181.4766" x="418.7071" y="298.2793">(H:30-90, S:30-255, V:30-255)</text><polygon fill="#F1F1F1" points="407.6309,331.1094,611.2598,331.1094,623.2598,343.1094,611.2598,355.1094,407.6309,355.1094,395.6309,343.1094,407.6309,331.1094" style="stroke:#181818;stroke-width:0.5;"/><text fill="#000000" font-family="sans-serif" font-size="11" lengthAdjust="spacing" textLength="200.1323" x="407.6309" y="346.9175">"&#191;Se detectan regiones NO verdes?"</text><text fill="#000000" font-family="sans-serif" font-size="11" lengthAdjust="spacing" textLength="8.7871" x="386.8438" y="340.5151">s&#237;</text><text fill="#000000" font-family="sans-serif" font-size="11" lengthAdjust="spacing" textLength="13.7017" x="623.2598" y="340.5151">no</text><rect fill="#F1F1F1" height="33.9688" rx="12.5" ry="12.5" style="stroke:#181818;stroke-width:0.5;" width="230.8262" x="204.4303" y="365.1094"/><text fill="#000000" font-family="sans-serif" font-size="12" lengthAdjust="spacing" textLength="210.8262" x="214.4303" y="386.248">Generar m&#225;scara (carta en blanco)</text><rect fill="#F1F1F1" height="47.9375" rx="12.5" ry="12.5" style="stroke:#181818;stroke-width:0.5;" width="219.5117" x="210.0875" y="419.0781"/><text fill="#000000" font-family="sans-serif" font-size="12" lengthAdjust="spacing" textLength="199.5117" x="220.0875" y="440.2168">Aplicar operaciones morfol&#243;gicas</text><text fill="#000000" font-family="sans-serif" font-size="12" lengthAdjust="spacing" textLength="113.4961" x="220.0875" y="454.1855">(apertura + cierre)</text><rect fill="#F1F1F1" height="33.9688" rx="12.5" ry="12.5" style="stroke:#181818;stroke-width:0.5;" width="142.1973" x="248.7448" y="487.0156"/><text fill="#000000" font-family="sans-serif" font-size="12" lengthAdjust="spacing" textLength="122.1973" x="258.7448" y="508.1543">Encontrar contornos</text><polygon fill="#F1F1F1" points="223.2657,540.9844,416.421,540.9844,428.421,552.9844,416.421,564.9844,223.2657,564.9844,211.2657,552.9844,223.2657,540.9844" style="stroke:#181818;stroke-width:0.5;"/><text fill="#000000" font-family="sans-serif" font-size="11" lengthAdjust="spacing" textLength="189.6587" x="223.2657" y="556.7925">"&#191;Hay contornos con &#225;rea v&#225;lida?"</text><text fill="#000000" font-family="sans-serif" font-size="11" lengthAdjust="spacing" textLength="8.7871" x="202.4786" y="550.3901">s&#237;</text><text fill="#000000" font-family="sans-serif" font-size="11" lengthAdjust="spacing" textLength="13.7017" x="428.421" y="550.3901">no</text><rect fill="#F1F1F1" height="47.9375" rx="12.5" ry="12.5" style="stroke:#181818;stroke-width:0.5;" width="238.6543" x="66.822" y="574.9844"/><text fill="#000000" font-family="sans-serif" font-size="12" lengthAdjust="spacing" textLength="218.6543" x="76.822" y="596.123">Seleccionar contorno de mayor &#225;rea</text><text fill="#000000" font-family="sans-serif" font-size="12" lengthAdjust="spacing" textLength="95.8477" x="76.822" y="610.0918">(carta principal)</text><rect fill="#F1F1F1" height="47.9375" rx="12.5" ry="12.5" style="stroke:#181818;stroke-width:0.5;" width="179.9668" x="96.1658" y="642.9219"/><text fill="#000000" font-family="sans-serif" font-size="12" lengthAdjust="spacing" textLength="144.8379" x="106.1658" y="664.0605">Aplicar warpPerspective</text><text fill="#000000" font-family="sans-serif" font-size="12" lengthAdjust="spacing" textLength="159.9668" x="106.1658" y="678.0293">(normalizar a 200x300 px)</text><rect fill="#F1F1F1" height="47.9375" rx="12.5" ry="12.5" style="stroke:#181818;stroke-width:0.5;" width="195.916" x="88.1912" y="710.8594"/><text fill="#000000" font-family="sans-serif" font-size="12" lengthAdjust="spacing" textLength="84.4512" x="98.1912" y="731.998">Orientar carta</text><text fill="#000000" font-family="sans-serif" font-size="12" lengthAdjust="spacing" textLength="175.916" x="98.1912" y="745.9668">(analizar tinta en 4 esquinas)</text><rect fill="#F1F1F1" height="33.9688" rx="12.5" ry="12.5" style="stroke:#181818;stroke-width:0.5;" width="227.4629" x="72.4177" y="778.7969"/><text fill="#000000" font-family="sans-serif" font-size="12" lengthAdjust="spacing" textLength="207.4629" x="82.4177" y="799.9355">Extraer esquina superior izquierda</text><rect fill="#F1F1F1" height="47.9375" rx="12.5" ry="12.5" style="stroke:#181818;stroke-width:0.5;" width="224.5918" x="73.8533" y="832.7656"/><text fill="#000000" font-family="sans-serif" font-size="12" lengthAdjust="spacing" textLength="204.5918" x="83.8533" y="853.9043">Separar ROI valor (parte superior)</text><text fill="#000000" font-family="sans-serif" font-size="12" lengthAdjust="spacing" textLength="153.7734" x="83.8533" y="867.873">y ROI palo (parte inferior)</text><rect fill="#F1F1F1" height="47.9375" rx="12.5" ry="12.5" style="stroke:#181818;stroke-width:0.5;" width="197.9082" x="87.1951" y="900.7031"/><text fill="#000000" font-family="sans-serif" font-size="12" lengthAdjust="spacing" textLength="177.9082" x="97.1951" y="921.8418">Binarizar ROI valor y ROI palo</text><text fill="#000000" font-family="sans-serif" font-size="12" lengthAdjust="spacing" textLength="84.8965" x="97.1951" y="935.8105">(Umbral Otsu)</text><rect fill="#F1F1F1" height="47.9375" rx="12.5" ry="12.5" style="stroke:#181818;stroke-width:0.5;" width="196.1328" x="88.0828" y="968.6406"/><text fill="#000000" font-family="sans-serif" font-size="12" lengthAdjust="spacing" textLength="176.1328" x="98.0828" y="989.7793">Template matching ROI valor</text><text fill="#000000" font-family="sans-serif" font-size="12" lengthAdjust="spacing" textLength="124.084" x="98.0828" y="1003.748">vs plantillas de valor</text><rect fill="#F1F1F1" height="47.9375" rx="12.5" ry="12.5" style="stroke:#181818;stroke-width:0.5;" width="191.7148" x="90.2917" y="1036.5781"/><text fill="#000000" font-family="sans-serif" font-size="12" lengthAdjust="spacing" textLength="171.7148" x="100.2917" y="1057.7168">Template matching ROI palo</text><text fill="#000000" font-family="sans-serif" font-size="12" lengthAdjust="spacing" textLength="119.666" x="100.2917" y="1071.6855">vs plantillas de palo</text><polygon fill="#F1F1F1" points="114.8506,1104.5156,257.4478,1104.5156,269.4478,1116.5156,257.4478,1128.5156,114.8506,1128.5156,102.8506,1116.5156,114.8506,1104.5156" style="stroke:#181818;stroke-width:0.5;"/><text fill="#000000" font-family="sans-serif" font-size="11" lengthAdjust="spacing" textLength="139.1006" x="114.8506" y="1120.3237">"&#191;Score valor &gt; umbral?"</text><text fill="#000000" font-family="sans-serif" font-size="11" lengthAdjust="spacing" textLength="8.7871" x="94.0635" y="1113.9214">s&#237;</text><text fill="#000000" font-family="sans-serif" font-size="11" lengthAdjust="spacing" textLength="13.7017" x="269.4478" y="1113.9214">no</text><rect fill="#F1F1F1" height="33.9688" rx="12.5" ry="12.5" style="stroke:#181818;stroke-width:0.5;" width="163.7012" x="11" y="1138.5156"/><text fill="#000000" font-family="sans-serif" font-size="12" lengthAdjust="spacing" textLength="143.7012" x="21" y="1159.6543">Asignar valor detectado</text><rect fill="#F1F1F1" height="33.9688" rx="12.5" ry="12.5" style="stroke:#181818;stroke-width:0.5;" width="90.0781" x="234.4087" y="1138.5156"/><text fill="#000000" font-family="sans-serif" font-size="12" lengthAdjust="spacing" textLength="66.2637" x="244.4087" y="1159.6543">Valor = "?"</text><polygon fill="#F1F1F1" points="186.1492,1178.4844,198.1492,1190.4844,186.1492,1202.4844,174.1492,1190.4844,186.1492,1178.4844" style="stroke:#181818;stroke-width:0.5;"/><polygon fill="#F1F1F1" points="116.8755,1222.4844,255.4229,1222.4844,267.4229,1234.4844,255.4229,1246.4844,116.8755,1246.4844,104.8755,1234.4844,116.8755,1222.4844" style="stroke:#181818;stroke-width:0.5;"/><text fill="#000000" font-family="sans-serif" font-size="11" lengthAdjust="spacing" textLength="135.0508" x="116.8755" y="1238.2925">"&#191;Score palo &gt; umbral?"</text><text fill="#000000" font-family="sans-serif" font-size="11" lengthAdjust="spacing" textLength="8.7871" x="96.0884" y="1231.8901">s&#237;</text><text fill="#000000" font-family="sans-serif" font-size="11" lengthAdjust="spacing" textLength="13.7017" x="267.4229" y="1231.8901">no</text><rect fill="#F1F1F1" height="33.9688" rx="12.5" ry="12.5" style="stroke:#181818;stroke-width:0.5;" width="159.2832" x="15.2339" y="1256.4844"/><text fill="#000000" font-family="sans-serif" font-size="12" lengthAdjust="spacing" textLength="139.2832" x="25.2339" y="1277.623">Asignar palo detectado</text><rect fill="#F1F1F1" height="33.9688" rx="12.5" ry="12.5" style="stroke:#181818;stroke-width:0.5;" width="80.3574" x="237.2441" y="1256.4844"/><text fill="#000000" font-family="sans-serif" font-size="12" lengthAdjust="spacing" textLength="60.3574" x="247.2441" y="1277.623">Palo = "?"</text><polygon fill="#F1F1F1" points="186.1492,1296.4531,198.1492,1308.4531,186.1492,1320.4531,174.1492,1308.4531,186.1492,1296.4531" style="stroke:#181818;stroke-width:0.5;"/><rect fill="#F1F1F1" height="33.9688" rx="12.5" ry="12.5" style="stroke:#181818;stroke-width:0.5;" width="220.0859" x="76.1062" y="1340.4531"/><text fill="#000000" font-family="sans-serif" font-size="12" lengthAdjust="spacing" textLength="200.0859" x="86.1062" y="1361.5918">Construir texto "VALOR de PALO"</text><rect fill="#F1F1F1" height="33.9688" rx="12.5" ry="12.5" style="stroke:#181818;stroke-width:0.5;" width="203.8086" x="84.2449" y="1394.4219"/><text fill="#000000" font-family="sans-serif" font-size="12" lengthAdjust="spacing" textLength="183.8086" x="94.2449" y="1415.5605">Dibujar rect&#225;ngulo sobre carta</text><rect fill="#F1F1F1" height="33.9688" rx="12.5" ry="12.5" style="stroke:#181818;stroke-width:0.5;" width="254.2813" x="59.0085" y="1448.3906"/><text fill="#000000" font-family="sans-serif" font-size="12" lengthAdjust="spacing" textLength="234.2813" x="69.0085" y="1469.5293">Mostrar texto y resultado en la imagen</text><rect fill="#F1F1F1" height="33.9688" rx="12.5" ry="12.5" style="stroke:#181818;stroke-width:0.5;" width="198.1016" x="354.4868" y="574.9844"/><text fill="#000000" font-family="sans-serif" font-size="12" lengthAdjust="spacing" textLength="178.1016" x="364.4868" y="596.123">No se detectan cartas v&#225;lidas</text><polygon fill="#F1F1F1" points="319.8434,1488.3594,331.8434,1500.3594,319.8434,1512.3594,307.8434,1500.3594,319.8434,1488.3594" style="stroke:#181818;stroke-width:0.5;"/><rect fill="#F1F1F1" height="33.9688" rx="12.5" ry="12.5" style="stroke:#181818;stroke-width:0.5;" width="232.918" x="582.5884" y="365.1094"/><text fill="#000000" font-family="sans-serif" font-size="12" lengthAdjust="spacing" textLength="212.918" x="592.5884" y="386.248">No se detecta carta sobre el tapete</text><polygon fill="#F1F1F1" points="509.4454,1518.3594,521.4454,1530.3594,509.4454,1542.3594,497.4454,1530.3594,509.4454,1518.3594" style="stroke:#181818;stroke-width:0.5;"/><ellipse cx="509.4454" cy="1573.3594" fill="none" rx="11" ry="11" style="stroke:#222222;stroke-width:1;"/><ellipse cx="509.4454" cy="1573.3594" fill="#222222" rx="6" ry="6" style="stroke:#222222;stroke-width:1;"/><line style="stroke:#181818;stroke-width:1;" x1="509.4454" x2="509.4454" y1="67.2969" y2="87.2969"/><polygon fill="#181818" points="505.4454,77.2969,509.4454,87.2969,513.4454,77.2969,509.4454,81.2969" style="stroke:#181818;stroke-width:1;"/><line style="stroke:#181818;stroke-width:1;" x1="509.4454" x2="509.4454" y1="121.2656" y2="141.2656"/><polygon fill="#181818" points="505.4454,131.2656,509.4454,141.2656,513.4454,131.2656,509.4454,135.2656" style="stroke:#181818;stroke-width:1;"/><line style="stroke:#181818;stroke-width:1;" x1="509.4454" x2="509.4454" y1="189.2031" y2="209.2031"/><polygon fill="#181818" points="505.4454,199.2031,509.4454,209.2031,513.4454,199.2031,509.4454,203.2031" style="stroke:#181818;stroke-width:1;"/><line style="stroke:#181818;stroke-width:1;" x1="509.4454" x2="509.4454" y1="243.1719" y2="263.1719"/><polygon fill="#181818" points="505.4454,253.1719,509.4454,263.1719,513.4454,253.1719,509.4454,257.1719" style="stroke:#181818;stroke-width:1;"/><line style="stroke:#181818;stroke-width:1;" x1="319.8434" x2="319.8434" y1="399.0781" y2="419.0781"/><polygon fill="#181818" points="315.8434,409.0781,319.8434,419.0781,323.8434,409.0781,319.8434,413.0781" style="stroke:#181818;stroke-width:1;"/><line style="stroke:#181818;stroke-width:1;" x1="319.8434" x2="319.8434" y1="467.0156" y2="487.0156"/><polygon fill="#181818" points="315.8434,477.0156,319.8434,487.0156,323.8434,477.0156,319.8434,481.0156" style="stroke:#181818;stroke-width:1;"/><line style="stroke:#181818;stroke-width:1;" x1="186.1492" x2="186.1492" y1="622.9219" y2="642.9219"/><polygon fill="#181818" points="182.1492,632.9219,186.1492,642.9219,190.1492,632.9219,186.1492,636.9219" style="stroke:#181818;stroke-width:1;"/><line style="stroke:#181818;stroke-width:1;" x1="186.1492" x2="186.1492" y1="690.8594" y2="710.8594"/><polygon fill="#181818" points="182.1492,700.8594,186.1492,710.8594,190.1492,700.8594,186.1492,704.8594" style="stroke:#181818;stroke-width:1;"/><line style="stroke:#181818;stroke-width:1;" x1="186.1492" x2="186.1492" y1="758.7969" y2="778.7969"/><polygon fill="#181818" points="182.1492,768.7969,186.1492,778.7969,190.1492,768.7969,186.1492,772.7969" style="stroke:#181818;stroke-width:1;"/><line style="stroke:#181818;stroke-width:1;" x1="186.1492" x2="186.1492" y1="812.7656" y2="832.7656"/><polygon fill="#181818" points="182.1492,822.7656,186.1492,832.7656,190.1492,822.7656,186.1492,826.7656" style="stroke:#181818;stroke-width:1;"/><line style="stroke:#181818;stroke-width:1;" x1="186.1492" x2="186.1492" y1="880.7031" y2="900.7031"/><polygon fill="#181818" points="182.1492,890.7031,186.1492,900.7031,190.1492,890.7031,186.1492,894.7031" style="stroke:#181818;stroke-width:1;"/><line style="stroke:#181818;stroke-width:1;" x1="186.1492" x2="186.1492" y1="948.6406" y2="968.6406"/><polygon fill="#181818" points="182.1492,958.6406,186.1492,968.6406,190.1492,958.6406,186.1492,962.6406" style="stroke:#181818;stroke-width:1;"/><line style="stroke:#181818;stroke-width:1;" x1="186.1492" x2="186.1492" y1="1016.5781" y2="1036.5781"/><polygon fill="#181818" points="182.1492,1026.5781,186.1492,1036.5781,190.1492,1026.5781,186.1492,1030.5781" style="stroke:#181818;stroke-width:1;"/><line style="stroke:#181818;stroke-width:1;" x1="102.8506" x2="92.8506" y1="1116.5156" y2="1116.5156"/><line style="stroke:#181818;stroke-width:1;" x1="92.8506" x2="92.8506" y1="1116.5156" y2="1138.5156"/><polygon fill="#181818" points="88.8506,1128.5156,92.8506,1138.5156,96.8506,1128.5156,92.8506,1132.5156" style="stroke:#181818;stroke-width:1;"/><line style="stroke:#181818;stroke-width:1;" x1="269.4478" x2="279.4478" y1="1116.5156" y2="1116.5156"/><line style="stroke:#181818;stroke-width:1;" x1="279.4478" x2="279.4478" y1="1116.5156" y2="1138.5156"/><polygon fill="#181818" points="275.4478,1128.5156,279.4478,1138.5156,283.4478,1128.5156,279.4478,1132.5156" style="stroke:#181818;stroke-width:1;"/><line style="stroke:#181818;stroke-width:1;" x1="92.8506" x2="92.8506" y1="1172.4844" y2="1190.4844"/><line style="stroke:#181818;stroke-width:1;" x1="92.8506" x2="174.1492" y1="1190.4844" y2="1190.4844"/><polygon fill="#181818" points="164.1492,1186.4844,174.1492,1190.4844,164.1492,1194.4844,168.1492,1190.4844" style="stroke:#181818;stroke-width:1;"/><line style="stroke:#181818;stroke-width:1;" x1="279.4478" x2="279.4478" y1="1172.4844" y2="1190.4844"/><line style="stroke:#181818;stroke-width:1;" x1="279.4478" x2="198.1492" y1="1190.4844" y2="1190.4844"/><polygon fill="#181818" points="208.1492,1186.4844,198.1492,1190.4844,208.1492,1194.4844,204.1492,1190.4844" style="stroke:#181818;stroke-width:1;"/><line style="stroke:#181818;stroke-width:1;" x1="186.1492" x2="186.1492" y1="1084.5156" y2="1104.5156"/><polygon fill="#181818" points="182.1492,1094.5156,186.1492,1104.5156,190.1492,1094.5156,186.1492,1098.5156" style="stroke:#181818;stroke-width:1;"/><line style="stroke:#181818;stroke-width:1;" x1="104.8755" x2="94.8755" y1="1234.4844" y2="1234.4844"/><line style="stroke:#181818;stroke-width:1;" x1="94.8755" x2="94.8755" y1="1234.4844" y2="1256.4844"/><polygon fill="#181818" points="90.8755,1246.4844,94.8755,1256.4844,98.8755,1246.4844,94.8755,1250.4844" style="stroke:#181818;stroke-width:1;"/><line style="stroke:#181818;stroke-width:1;" x1="267.4229" x2="277.4229" y1="1234.4844" y2="1234.4844"/><line style="stroke:#181818;stroke-width:1;" x1="277.4229" x2="277.4229" y1="1234.4844" y2="1256.4844"/><polygon fill="#181818" points="273.4229,1246.4844,277.4229,1256.4844,281.4229,1246.4844,277.4229,1250.4844" style="stroke:#181818;stroke-width:1;"/><line style="stroke:#181818;stroke-width:1;" x1="94.8755" x2="94.8755" y1="1290.4531" y2="1308.4531"/><line style="stroke:#181818;stroke-width:1;" x1="94.8755" x2="174.1492" y1="1308.4531" y2="1308.4531"/><polygon fill="#181818" points="164.1492,1304.4531,174.1492,1308.4531,164.1492,1312.4531,168.1492,1308.4531" style="stroke:#181818;stroke-width:1;"/><line style="stroke:#181818;stroke-width:1;" x1="277.4229" x2="277.4229" y1="1290.4531" y2="1308.4531"/><line style="stroke:#181818;stroke-width:1;" x1="277.4229" x2="198.1492" y1="1308.4531" y2="1308.4531"/><polygon fill="#181818" points="208.1492,1304.4531,198.1492,1308.4531,208.1492,1312.4531,204.1492,1308.4531" style="stroke:#181818;stroke-width:1;"/><line style="stroke:#181818;stroke-width:1;" x1="186.1492" x2="186.1492" y1="1202.4844" y2="1222.4844"/><polygon fill="#181818" points="182.1492,1212.4844,186.1492,1222.4844,190.1492,1212.4844,186.1492,1216.4844" style="stroke:#181818;stroke-width:1;"/><line style="stroke:#181818;stroke-width:1;" x1="186.1492" x2="186.1492" y1="1320.4531" y2="1340.4531"/><polygon fill="#181818" points="182.1492,1330.4531,186.1492,1340.4531,190.1492,1330.4531,186.1492,1334.4531" style="stroke:#181818;stroke-width:1;"/><line style="stroke:#181818;stroke-width:1;" x1="186.1492" x2="186.1492" y1="1374.4219" y2="1394.4219"/><polygon fill="#181818" points="182.1492,1384.4219,186.1492,1394.4219,190.1492,1384.4219,186.1492,1388.4219" style="stroke:#181818;stroke-width:1;"/><line style="stroke:#181818;stroke-width:1;" x1="186.1492" x2="186.1492" y1="1428.3906" y2="1448.3906"/><polygon fill="#181818" points="182.1492,1438.3906,186.1492,1448.3906,190.1492,1438.3906,186.1492,1442.3906" style="stroke:#181818;stroke-width:1;"/><line style="stroke:#181818;stroke-width:1;" x1="211.2657" x2="186.1492" y1="552.9844" y2="552.9844"/><line style="stroke:#181818;stroke-width:1;" x1="186.1492" x2="186.1492" y1="552.9844" y2="574.9844"/><polygon fill="#181818" points="182.1492,564.9844,186.1492,574.9844,190.1492,564.9844,186.1492,568.9844" style="stroke:#181818;stroke-width:1;"/><line style="stroke:#181818;stroke-width:1;" x1="428.421" x2="453.5376" y1="552.9844" y2="552.9844"/><line style="stroke:#181818;stroke-width:1;" x1="453.5376" x2="453.5376" y1="552.9844" y2="574.9844"/><polygon fill="#181818" points="449.5376,564.9844,453.5376,574.9844,457.5376,564.9844,453.5376,568.9844" style="stroke:#181818;stroke-width:1;"/><line style="stroke:#181818;stroke-width:1;" x1="186.1492" x2="186.1492" y1="1482.3594" y2="1500.3594"/><line style="stroke:#181818;stroke-width:1;" x1="186.1492" x2="307.8434" y1="1500.3594" y2="1500.3594"/><polygon fill="#181818" points="297.8434,1496.3594,307.8434,1500.3594,297.8434,1504.3594,301.8434,1500.3594" style="stroke:#181818;stroke-width:1;"/><line style="stroke:#181818;stroke-width:1;" x1="453.5376" x2="453.5376" y1="608.9531" y2="1500.3594"/><line style="stroke:#181818;stroke-width:1;" x1="453.5376" x2="331.8434" y1="1500.3594" y2="1500.3594"/><polygon fill="#181818" points="341.8434,1496.3594,331.8434,1500.3594,341.8434,1504.3594,337.8434,1500.3594" style="stroke:#181818;stroke-width:1;"/><line style="stroke:#181818;stroke-width:1;" x1="319.8434" x2="319.8434" y1="520.9844" y2="540.9844"/><polygon fill="#181818" points="315.8434,530.9844,319.8434,540.9844,323.8434,530.9844,319.8434,534.9844" style="stroke:#181818;stroke-width:1;"/><line style="stroke:#181818;stroke-width:1;" x1="395.6309" x2="319.8434" y1="343.1094" y2="343.1094"/><line style="stroke:#181818;stroke-width:1;" x1="319.8434" x2="319.8434" y1="343.1094" y2="365.1094"/><polygon fill="#181818" points="315.8434,355.1094,319.8434,365.1094,323.8434,355.1094,319.8434,359.1094" style="stroke:#181818;stroke-width:1;"/><line style="stroke:#181818;stroke-width:1;" x1="623.2598" x2="699.0474" y1="343.1094" y2="343.1094"/><line style="stroke:#181818;stroke-width:1;" x1="699.0474" x2="699.0474" y1="343.1094" y2="365.1094"/><polygon fill="#181818" points="695.0474,355.1094,699.0474,365.1094,703.0474,355.1094,699.0474,359.1094" style="stroke:#181818;stroke-width:1;"/><line style="stroke:#181818;stroke-width:1;" x1="319.8434" x2="319.8434" y1="1512.3594" y2="1530.3594"/><line style="stroke:#181818;stroke-width:1;" x1="319.8434" x2="497.4454" y1="1530.3594" y2="1530.3594"/><polygon fill="#181818" points="487.4454,1526.3594,497.4454,1530.3594,487.4454,1534.3594,491.4454,1530.3594" style="stroke:#181818;stroke-width:1;"/><line style="stroke:#181818;stroke-width:1;" x1="699.0474" x2="699.0474" y1="399.0781" y2="1530.3594"/><line style="stroke:#181818;stroke-width:1;" x1="699.0474" x2="521.4454" y1="1530.3594" y2="1530.3594"/><polygon fill="#181818" points="531.4454,1526.3594,521.4454,1530.3594,531.4454,1534.3594,527.4454,1530.3594" style="stroke:#181818;stroke-width:1;"/><line style="stroke:#181818;stroke-width:1;" x1="509.4454" x2="509.4454" y1="311.1094" y2="331.1094"/><polygon fill="#181818" points="505.4454,321.1094,509.4454,331.1094,513.4454,321.1094,509.4454,325.1094" style="stroke:#181818;stroke-width:1;"/><line style="stroke:#181818;stroke-width:1;" x1="509.4454" x2="509.4454" y1="1542.3594" y2="1562.3594"/><polygon fill="#181818" points="505.4454,1552.3594,509.4454,1562.3594,513.4454,1552.3594,509.4454,1556.3594" style="stroke:#181818;stroke-width:1;"/><!--SRC=[ZLJRRXCn47tVhnX5Gar5AwAMFf08K6ahYWHDrK3U9vl9rfNNNiRUaFHlyW4yzGEGs1zZx7KkLIj0YXIlvvmpPyRsUEKrmRd2Wh54c9BySkLKys3W46uejyRcgbHal0tH7DcZopBdPP5b_JEiVCt8C1C-HKIpAf5n8C6zm1SymyJob1mOAjYwlQnxr7i1oAmc2AyWVapmpku7qfarSsAl610kH-D1rXzHKKf-aV5OaIUG-9IoxcN_k7VufdS0ex0uEZavW75Q1IKrWsxdzwzHSEKfzsY0gL3MY96hOIlYtdTW7_mj6UYwvkT-1j3_I8P2HMMpSb8kGZSM3OAPQ3Hvi2cmqqeh2O2j19stigNbcTNDGo4H9w2k-ENG7tW9kI9c2iQ4V24oneSiuT-oiIw89ikNkDpkXnKqAoQ4URFIQefFFOlYY3JbmSQEPZYE4fUMMtu4fc8gLYPN5UhMq4uzFv2hQs9NISlKd5gIiLoYLlSOJkMerriSztfGBJRa8QlsXA9woq6J65wPjdslWTptMXbq6-B5Ghf0l0w0gwLZIXohUzcG8y8rSaGLXeRT33_17BL0kh8Xjs5DQHknZ00fpAxZoipQ-5hfWoJYw6ohjQMrvh-L4qODG-_g3UyhbPL67thgyrjbYYq_0kOE96wyqXfTw7qC_PszoVY472A9kxx9yfYIABo3EZfyxYw4mtIg23UX1QVxFxM362VjA1pf1ZsEgBVG4RK4CLCrUoPvxEj_vexOVwM-3g2O-KdYC0cSvrecWQU5Z9_E-FJpy2RqvbeMYT0_LvFwJjAnv6bMfgX5qDa9frcLK5-iYy-jLLeAsjKw-0htKYEe4WioiT-FFVQlH6vdXBG3SFqKuwjDddTvZrajARaYdSRO84j4vstr1m00]--></g></svg>